# xmcd CD database file
#
# Track frame offsets:
#	150
#	19923
#	45599
#	69798
#
# Disc length: 1243 seconds
#
# Revision: 0
# Processed by: cddbd v1.5.2PL0 Copyright (c) Steve Scherf et al.
# Submitted via: CDex 1.70beta2
#
DISCID=2804d904
DTITLE=Sultan Lounge - Sultan Lounge One
DYEAR=2002
DGENRE=New Age
TTITLE0=Fuat Saka - Nazim'a Saygi
TTITLE1=Fateh - Drifting Clouds
TTITLE2=David Basho - Bosporus By Night
TTITLE3=Yulduz Bahattin - Flowers Of The Desert
EXTD=YEAR: 2002
EXTT0=
EXTT1=
EXTT2=
EXTT3=
PLAYORDER=
